/* XPM */
const static char *icon_psebreaker_xpm[] = {
/* width height num_colors chars_per_pixel */
"    20    20      256            2",
/* colors */
"`` c #000000",
"`. c #001c03",
"`# c #001c04",
"`a c #0a1c0d",
"`b c #003906",
"`c c #003907",
"`d c #133919",
"`e c #14391b",
"`f c #183920",
"`g c #00550c",
"`h c #00550d",
"`i c #01550e",
"`j c #1e5528",
"`k c #00710e",
"`l c #257132",
"`m c #2d713c",
"`n c #008e11",
"`o c #00aa11",
"`p c #00aa15",
"`q c #00aa18",
"`r c #02aa1c",
"`s c #01bd04",
"`t c #00bf08",
"`u c #00bf0a",
"`v c #00bf0e",
"`w c #00bf11",
"`x c #00bf15",
"`y c #00bf17",
"`z c #00bf1b",
"`A c #02bf20",
"`B c #318e41",
"`C c #38aa4b",
"`D c #39aa4d",
"`E c #3eaa54",
"`F c #3faa55",
"`G c #00c615",
"`H c #00c618",
"`I c #01d102",
"`J c #00d202",
"`K c #01d105",
"`L c #00d208",
"`M c #00d20c",
"`N c #00d20f",
"`O c #00d213",
"`P c #00d217",
"`Q c #00d21a",
"`R c #00d21e",
"`S c #02c621",
"`T c #02d223",
"`U c #00e318",
"`V c #00ff06",
"`W c #00ff0a",
"`X c #00ff0e",
"`Y c #00ff13",
"`Z c #00ff17",
"`0 c #00ff1b",
"`1 c #00ff1f",
"`2 c #00ff24",
"`3 c #03ff2b",
"`4 c #43aa5b",
"`5 c #45aa5c",
"`6 c #40bf57",
"`7 c #46bf5e",
"`8 c #4baa65",
".` c #4dbf68",
".. c #53bf6f",
".# c #5abf79",
".a c #43c65b",
".b c #47d25f",
".c c #49c663",
".d c #4dd268",
".e c #55d272",
".f c #5bd27a",
".g c #56ff74",
".h c #5dff7e",
".i c #5fbf80",
".j c #66bf89",
".k c #6cbf90",
".l c #73be99",
".m c #77bea0",
".n c #63d285",
".o c #69d28c",
".p c #70d297",
".q c #76d29f",
".r c #7ed1a9",
".s c #62e384",
".t c #67ff8a",
".u c #6eff94",
".v c #78ffa1",
".w c #7effaa",
".x c #88ffb7",
".y c #8fffc1",
".z c #99ffce",
".A c #000000",
".B c #000000",
".C c #000000",
".D c #000000",
".E c #000000",
".F c #000000",
".G c #000000",
".H c #000000",
".I c #000000",
".J c #000000",
".K c #000000",
".L c #000000",
".M c #000000",
".N c #000000",
".O c #000000",
".P c #000000",
".Q c #000000",
".R c #000000",
".S c #000000",
".T c #000000",
".U c #000000",
".V c #000000",
".W c #000000",
".X c #000000",
".Y c #000000",
".Z c #000000",
".0 c #000000",
".1 c #000000",
".2 c #000000",
".3 c #000000",
".4 c #000000",
".5 c #000000",
".6 c #000000",
".7 c #000000",
".8 c #000000",
"#` c #000000",
"#. c #000000",
"## c #000000",
"#a c #000000",
"#b c #000000",
"#c c #000000",
"#d c #000000",
"#e c #000000",
"#f c #000000",
"#g c #000000",
"#h c #000000",
"#i c #000000",
"#j c #000000",
"#k c #000000",
"#l c #000000",
"#m c #000000",
"#n c #000000",
"#o c #000000",
"#p c #000000",
"#q c #000000",
"#r c #000000",
"#s c #000000",
"#t c #000000",
"#u c #000000",
"#v c #000000",
"#w c #000000",
"#x c #000000",
"#y c #000000",
"#z c #000000",
"#A c #000000",
"#B c #000000",
"#C c #000000",
"#D c #000000",
"#E c #000000",
"#F c #000000",
"#G c #000000",
"#H c #000000",
"#I c #000000",
"#J c #000000",
"#K c #000000",
"#L c #000000",
"#M c #000000",
"#N c #000000",
"#O c #000000",
"#P c #000000",
"#Q c #000000",
"#R c #000000",
"#S c #000000",
"#T c #000000",
"#U c #000000",
"#V c #000000",
"#W c #000000",
"#X c #000000",
"#Y c #000000",
"#Z c #000000",
"#0 c #000000",
"#1 c #000000",
"#2 c #000000",
"#3 c #000000",
"#4 c #000000",
"#5 c #000000",
"#6 c #000000",
"#7 c #000000",
"#8 c #000000",
"a` c #000000",
"a. c #000000",
"a# c #000000",
"aa c #000000",
"ab c #000000",
"ac c #000000",
"ad c #000000",
"ae c #000000",
"af c #000000",
"ag c #000000",
"ah c #000000",
"ai c #000000",
"aj c #000000",
"ak c #000000",
"al c #000000",
"am c #000000",
"an c #000000",
"ao c #000000",
"ap c #000000",
"aq c #000000",
"ar c #000000",
"as c #000000",
"at c #000000",
"au c #000000",
"av c #000000",
"aw c #000000",
"ax c #000000",
"ay c #000000",
"az c #000000",
"aA c #000000",
"aB c #000000",
"aC c #000000",
"aD c #000000",
"aE c #000000",
"aF c #000000",
"aG c #000000",
"aH c #000000",
"aI c #000000",
"aJ c #000000",
"aK c #000000",
"aL c #000000",
"aM c #000000",
"aN c #000000",
"aO c #000000",
"aP c #000000",
"aQ c #000000",
"aR c #000000",
"aS c #000000",
"aT c #000000",
"aU c #000000",
"aV c #000000",
"aW c #000000",
"aX c #000000",
"aY c #000000",
"aZ c #000000",
"a0 c #000000",
"a1 c #000000",
"a2 c #000000",
"a3 c #000000",
"a4 c #000000",
"a5 c #000000",
"a6 c #000000",
"a7 c #000000",
"a8 c None",
/* pixels */
"a8.m.m.m.m.m.m.m.m.m.m.m.m.m.m.m.m.m.ma8",
".l.z.z.z.z.z.z.z.z.z.z.z.z.z.z.z.z.z.z.r",
".k.y.y.y.y.y.y.y.y.y.y.y.y.y.y.y.y.y.y.q",
".j.x.x.x.x.x.x.x.x.x.x.x.x.x.x.x.x.x.x.p",
".i.w.w.w.w.w.w.w.w.w.w.w.w.w.w.w.w.w.w.o",
".#.v.v.v.v.v.v.v.v.v.v.v.v.v.v.v.v.v.v.n",
"...u.u.u.s`8`8`8`8.s.u.u.u.u.u.u.u.u.u.f",
".`.t.t.t`5```4`4`m`f.t.t.t.t.t.t.t.t.t.e",
"`7.h.h.h`E``.h.h`E``.h.h`F`F.c.h.h.h.h.d",
"`6.g.g.g`D```j`j`e`l.g`B`d`C`a.a.g.g.g.b",
"`A`3`3`3`r```3`3`r```3`i`#`h`h`S`3`3`3`T",
"`z`2`2`2`q```2`2`q```2`g`g`2`2`2`2`2`2`R",
"`y`1`1`1`p```p`p`k`b`1`n`c`p`.`H`1`1`1`Q",
"`x`0`0`0`U`o`o`o`o`U`0`0`o`o`G`0`0`0`0`P",
"`w`Z`Z`Z`Z`Z`Z`Z`Z`Z`Z`Z`Z`Z`Z`Z`Z`Z`Z`O",
"`v`Y`Y`Y`Y`Y`Y`Y`Y`Y`Y`Y`Y`Y`Y`Y`Y`Y`Y`N",
"`u`X`X`X`X`X`X`X`X`X`X`X`X`X`X`X`X`X`X`M",
"`t`W`W`W`W`W`W`W`W`W`W`W`W`W`W`W`W`W`W`L",
"`s`V`V`V`V`V`V`V`V`V`V`V`V`V`V`V`V`V`V`K",
"a8`I`J`J`J`J`J`J`J`J`J`J`J`J`J`J`J`J`Ja8"
};
