/* XPM */
const static char *insert_substance_xpm[] = {
/* width height num_colors chars_per_pixel */
"    91    64      256            2",
/* colors */
"`` c #201e0c",
"`. c #7a9360",
"`# c #545a4f",
"`a c #bcccc8",
"`b c #b19442",
"`c c #b3af81",
"`d c #8c5e3c",
"`e c #6a250d",
"`f c #687842",
"`g c #ac9a75",
"`h c #acaf94",
"`i c #3c4131",
"`j c #64402c",
"`k c #6c5b39",
"`l c #8c7a4c",
"`m c #ccb591",
"`n c #949674",
"`o c #aca66c",
"`p c #ac7a5c",
"`q c #736b4b",
"`r c #8e8165",
"`s c #843420",
"`t c #97a471",
"`u c #442e1c",
"`v c #bcbe9c",
"`w c #514123",
"`x c #69331b",
"`y c #84402c",
"`z c #aca282",
"`A c #4c4e3c",
"`B c #ac9568",
"`C c #6c8754",
"`D c #d4e6ec",
"`E c #c0b08e",
"`F c #64512c",
"`G c #94865c",
"`H c #825c41",
"`I c #bca577",
"`J c #949483",
"`K c #dccc9c",
"`L c #7c765a",
"`M c #c4ae51",
"`N c #6c6c60",
"`O c #ccbe92",
"`P c #2c2e24",
"`Q c #c1a543",
"`R c #54462a",
"`S c #74341d",
"`T c #546a40",
"`U c #47331b",
"`V c #b89d42",
"`W c #752612",
"`X c #c4b692",
"`Y c #6d5d44",
"`Z c #a2a490",
"`0 c #afa58f",
"`1 c #bda566",
"`2 c #c4af7e",
"`3 c #928c6d",
"`4 c #573420",
"`5 c #889f63",
"`6 c #7a3f2c",
"`7 c #a38743",
"`8 c #cdc1ae",
".` c #9c8253",
".. c #7c5038",
".# c #989b82",
".a c #625b3e",
".b c #d3caab",
".c c #7f6c3a",
".d c #81796a",
".e c #9f885a",
".f c #989e6f",
".g c #5c5035",
".h c #b29c6a",
".i c #8c7145",
".j c #8f7d58",
".k c #c1c0b6",
".l c #e0ddc7",
".m c #bfb8a7",
".n c #372916",
".o c #849260",
".p c #692c13",
".q c #737764",
".r c #b3b1a5",
".s c #3a3724",
".t c #c4aa4e",
".u c #5c4829",
".v c #793a24",
".w c #5c3f2a",
".x c #6a3a24",
".y c #b3aa82",
".z c #7c6e54",
".A c #b89c4f",
".B c #817249",
".C c #bc964c",
".D c #65543d",
".E c #7e653a",
".F c #bcaa8c",
".G c #716449",
".H c #9fad92",
".I c #9e8d68",
".J c #a49c81",
".K c #60634c",
".L c #9c7654",
".M c #b1954e",
".N c #66482e",
".O c #72633b",
".P c #a49261",
".Q c #a4a26c",
".R c #c9b05d",
".S c #453a23",
".T c #762b16",
".U c #cccfc8",
".V c #bc9e6a",
".W c #8e7054",
".X c #b4b698",
".Y c #beb19d",
".Z c #beaa7d",
".0 c #d3c6a4",
".1 c #c0a44f",
".2 c #b1aa93",
".3 c #cebc7e",
".4 c #7e6d49",
".5 c #c3c6bd",
".6 c #bc9e74",
".7 c #3c4a24",
".8 c #845538",
"#` c #7c8e58",
"#. c #f4eedc",
"## c #ac8e43",
"#a c #f8fbf6",
"#b c #984220",
"#c c #b08868",
"#d c #5c2514",
"#e c #616b51",
"#f c #dcd1b5",
"#g c #8a9380",
"#h c #2c2812",
"#i c #52643e",
"#j c #8c6849",
"#k c #84887c",
"#l c #bcaf6f",
"#m c #443e29",
"#n c #9c8664",
"#o c #943a1c",
"#p c #ece2cc",
"#q c #6b8049",
"#r c #515144",
"#s c #e4e6e4",
"#t c #dcc6ac",
"#u c #f0f6f8",
"#v c #837f59",
"#w c #774734",
"#x c #82806a",
"#y c #747f64",
"#z c #bc8264",
"#A c #bc866c",
"#B c #572c1a",
"#C c #5c5648",
"#D c #a4967c",
"#E c #3c301c",
"#F c #8c8d7e",
"#G c #5f5e4f",
"#H c #a49b74",
"#I c #ccba90",
"#J c #938667",
"#K c #9caa74",
"#L c #737264",
"#M c #785630",
"#N c #d4d2b4",
"#O c #e4e2dc",
"#P c #879a61",
"#Q c #44522c",
"#R c #2c210d",
"#S c #9c6a4c",
"#T c #a49470",
"#U c #bcae82",
"#V c #843a27",
"#W c #a4aa80",
"#X c #444638",
"#Y c #c4d2d4",
"#Z c #b09e78",
"#0 c #344624",
"#1 c #94824c",
"#2 c #6c723c",
"#3 c #748e5c",
"#4 c #695631",
"#5 c #ccb654",
"#6 c #5c7244",
"#7 c #c1aa61",
"#8 c #cab684",
"a` c #573a23",
"a. c #a48e4c",
"a# c #cec6b3",
"aa c #7e7259",
"ab c #d4d6d2",
"ac c #5f7251",
"ad c #e1d6bc",
"ae c #8c9a77",
"af c #8c827c",
"ag c #9ca480",
"ah c #4e412d",
"ai c #6b3626",
"aj c #d0c0a1",
"ak c #504837",
"al c #a3a59d",
"am c #8c9f6e",
"an c #9a9d8e",
"ao c #d1cbb9",
"ap c #dcdcd8",
"aq c #6a2e1d",
"ar c #7e6445",
"as c #a4aaa0",
"at c #7c9a5c",
"au c #a28e5a",
"av c #91825b",
"aw c #b4b6a4",
"ax c #ccb65c",
"ay c #8c7655",
"az c #944a24",
"aA c #ac8e64",
"aB c #51564c",
"aC c #84462c",
"aD c #8c8e5c",
"aE c #dcd294",
"aF c #5c563c",
"aG c #8c7647",
"aH c #444a3c",
"aI c #848e6c",
"aJ c #e4eef4",
"aK c #ccba9f",
"aL c #745644",
"aM c #a49e90",
"aN c #a4a480",
"aO c #c4cbc8",
"aP c #b4b097",
"aQ c #6c3f2a",
"aR c #745d39",
"aS c #947c47",
"aT c #9c936d",
"aU c #b4a369",
"aV c #c4bea8",
"aW c #b4a47c",
"aX c #544e36",
"aY c #b4966c",
"aZ c #748650",
"a0 c #6c522c",
"a1 c #c4a67c",
"a2 c #9c967e",
"a3 c #847856",
"a4 c #ccb050",
"a5 c #746c54",
"a6 c #342f19",
"a7 c #7c341f",
"a8 c #5c6b3c",
/* pixels */
".l.l.la#`Z.2#NaV.#.J`z`cao#f`X`z`0`Xa#.0aj`X.Y`E`E`E`E`m`2`E`2`m`E`E`E.Y`8aoao.2`z.Y.m.m.m.m.m.Y.m.k.5#Yabab.U.kaV.k`8aVaVaV.maVaVaVaVaVajaV`8`8.k`8.k.k.k.k.5`aaOaO.kaV.maw.raP.Y`E`E",
"#f.b`EaNaPad`X.yaW.Y.2aW.Yao`vaW.Yaj.0aj.0.0`8#I`m`m`m`2`m`2`m`m`m`m`m`m`m`8a#`0`0`X.X.r.r.Y.maw.m.k.k#YaJ#aapa#.k`8.5`8aVaK.kaKaV`8.maVaV`v.m`v`h`0an`J#F#k.q.q#e#GaBaHaH`i`i.qaPaV.0",
"#I.2.J.m#N.m`c.Y`X.y.2.Y.m.lad.YaV.0a#.b.b.0#t#I`m`m`m`m`m`ma1`m`m`m`m`m`m.Y.m`0`0.r.m.m.Y.m.m.m.m.k.kaO`D#u#a#sab.U`8.m.r.2aMa2`3#x`L.G`#`A#X.s.sa6#E.sa6.S.S.Sah`R.g#4`Y.D#R#eaj`KaE",
".J`0ao.0`z`z`0.Y`c`zaPajaoaV.Y`z`z#Z`z.F`8#t#f#f#p#pad#tajajajaKaj#t#t`8ajaKaK`0`ZaP.m.r.m.kaV.k.k.k.k.k`a`a`aas#g.q#G#rak#m.s.Sah`w`Rak#4`k.4ayav.e#T`B`g#Z`Ia1.F.Z`I.F`IaY#E#C#l.3.3",
"`hao.Xan.J.J.J.#.##Da2aT.##Z.J#Z#H.J#T`g`z`E`8#O#u#a#a#.ad#t#t`8ajaV`8`8#ta#.m.2`Z`0aw.kao`8.k.mal#F`N`##X.s`P`P.sah.D.Gay`raA`g`Ia1`E#8`m`m`X#8#I`m#8`X#8`E`m`X#8`2`2`2.F.h`UaX#7#5#5",
".X.#`J`n`Ja2`n#F`3`3#DaM`0.F`z`0`z`g`g`g#Z`0`0`0.Yaoabad.lad#N.baK.F.2aVa#`8aV.2`0aw.m.2`J#L`A.sa6.SakaLa5`r`B.F`m`m`X`m`m#I#I#I`O`O#I`O#I.3`m#I.3`X#8#8#8#8#8`2`2`2`2a1a1.h`Uah.P`M`M",
"`J`J.#.#a2a2#FaTaM.m.kaj`v.m.m.YaW`z.J`0.Y.YaV.ka#a#a#aoaoaoao`8`X.Y`0.m.5`8`8.2`Z#J.KaXak#C.4av`B`zaW#U`2`E`m#I#I#I#I#I`O`O`O`O`O`O`O#I#I#I`X#I`m#8.3#8#8#8`2`2#8`2`2#U.Z.h.u#ma.`M`M",
"`v.Y`X.maW`0`z`z.2.2.FaP`XaK`X`XaVaKaKajaK`X.Y.Y`X.m.Y`X.maKaKajaK.YaK.m`8`8.m#D#C.g.G#J`g#U`E`X`E`X`2`X`m#8`X#I`X`O#I`O#I#I`OaK`O`O#I#I#I#I#I.3`m#8`2#8`2`2`2`2a1`2.Z.F`I#Z.N.s`G`1#7",
"aP`E`c.J`z`z.F`EaW#Z.2`E.Y.m.0a#.m.Y.Y.Y.m`E`E`E.F`E`E`E`E`E.Y`maK`m.m`m.Y.Y.F.j`r`g`I`E.Y`X`X`X`X`X#8`E#8`X`X`O#I`X`O#I#I`O#I`O`O#I`O.3#I#8#8#8#8`2#8`2`2`2`2`2`2.Za1a1.Z#Z#4#E#1.h.1",
".J.J.2#U.Y`X.m.Y.F`E.Y`E.Y.ma#`8`X.Y`E.F.F`Ea1.Fa1a1a1.F.F.F`2`E`E`E.Y.Y.Y`m.F#Z.F#U#U`E`X`E#8`X#8`X`X#8#8#8`X.3`X`O#I#I#I#I`O`O#I#I.3#8#8#8#8`2#8`2`2`2`2`2`2.Z.Z.Z#U.Z`IaWaR#E.B.1.1",
"`z`0`0`0`z`z`0`EaVaKaKaK`E`XaK.m.Y`E`E.F`I.F.F.F.Z.F.Z.Fa1`2.Z`2`m`m`m`m`X.m.Y#U.F#U`E`X`E#8`X`X`X#8`X#8`X#8`X#I#I`O`O#I`X#I#I#I#I`m#8#8`2`2`2`2`2`2`2`2a1`2a1#Ua1.Za1.Z`IaW.E.n.B.h.A",
"`E.Y`E.F`0`E.Y`X.Y`X`X.m`E.Y.Y.Y`E.F.F.F`I.Z.Z.Z.Z.Z.Z.Z`2.Za1`m`E`E`X`E`X.m`m`E.F#U`E`X`X`E#8`X`X`X#8`X#8`X`X`X#I`X.3#I.3#I#8#8#8#8#8#8`2`2#8`2`2`2a1`2`2`2.Z`2.F#l.F`I`I.6.i.n.E.A.A",
".m`X.Y`E.Y.YaKajaK.maK`m.m.YaK.Y`E.Y.F.F.F.F.Z.F.Z.Z.Za1.Z`2`2`E`m`E`m`XaK.m.Y#U#U#U`E`E`X#8`X#8`X#8`E`X`X`X#l`O`X#I`X.3`X#8#8`2#8`2`2`2`2#8a1`2`2`2`2a1`2a1`2.Za1.Z`I.F`IaW.W#EaR.M`1",
".m.m.YaP.F.Y.Y.Y.Y`X.m.m.m.maK.m.Y`E.F`E.Z.F.Z.F`2a1`Ea1`2`2`m`E`E`m`X.m.Y`X`X.Y.F.F`2`X`X`X`X`caP`c#W`tamam`t#W`X.3`m#8#8`2#8`2`2`2`2#8`2`2`2a1`2a1`2`2a1#Ua1#Ua1#Ua1.Z`I`I.j`u`k.M.A",
"aP.YaPaP.r.Y.m.m.Y.m.Y.m`X.m.m.m.Y.Y.Y`E`E`E.Y`E.Y`m`E`X`m.Y`maK`O.m`X.m`XaV.Y.Y#U.F#U`X`c`cag`t#3#q#`.7.7#6am`t`X#8#8#U#8`2`2`2#8`2`2a1`2a1`2`2a1`2#la1#l`2a1#U.Za1.Z`I`I#Z.``u`F##.A",
".2.2.Y.r.Y.r.Y.r.m.r.m.mawaw.ras`0alanana2#F#F#F#k#x#x.d#L#L#L`N#L#kaw.m.r`h`0aN.y`o#K`t`C`.atat`f`T#`#qa8#3`5`5`c`2`2`2`2`2`2`2`2`2`2`2`2`2a1`2`2a1`2a1`2.Z#U`2.Z.Z.Z`I`IaW.e`u.gau.C",
"as.2alaMaM`J#F#k.d.q#e#G#G#r#r`AakakakakaXaX.g.g.D.D#CaL.a`Yar.GaX`#al.r.r.2al.#`tatat#3ac#i`.`5`C#iat`f#i.o`5#P#l#U`2`2`2`2`2`2`2`2`2`2`2`2`2a1#l`2a1`2.Za1a1#U.Z.Z.y.ZaW.6au`U.ua..A",
"#G#CaB#r#rak#r.D.a.G.zaa.W`r#n.I#D`g#ZaW`I.F.F.F`E.Z#U#U`E.Y`E.F.WaB`0.r.2al`Z.faZ`fac`Tac#i`Cat`f#Q`C#q`f`5.f.f#l`2`2`2`2a1`2`2`2`2`2#7`2a1`2.Z`2a1#l.Z`2.Z#Ua1.Z.Z.Z`I`I#Z`Ba`ah.e.M",
".jav.I#H#ZaW.F#U`E`E`m`E`X`X`m`X`X`X`m`X`X`X`m`X`E`E.Y`m`E`m`E.F.j#Cal.r.r.m.m#T#2a8`Tac#6#i#y`5.oaD.Q`oaU`o#l#7`2#l`2a1`2#l`2.Za1`2a1`2`2`2a1`2#l`2a1#Ua1`2a1#la1.Z.Z`I`I`IaA.w.SaS.M",
"#U`E`X`E`X`X`X`X`m`XaK#I`m`XaK`X`m.m`m`XaK`XaK`m`m`m`X`E`m`E`E`E`r#Cas.maV.k`v.JaZ`f#`.oamaN`c#U#U`2`2`2`2`2a1`2`2a1`2#l`2#Ua1`2`2#l`2`2a1#l.Za1a1#U`2.Za1#Ua1a1`2.Z`I`I`IaWaA.N.saS.M",
"`X`X#8`X`X`X`X`X`XaK`X`XaK#I`X`m`X#I`m`XaK`X#I`X`X`X`X`m`E`X`E`Eav#CalaV.k.k.5`c`t#K`c`X#U`X`X`2`2#U`2`2.Z#la1#U`2`2a1`2a1`2`2#l`2a1`2#U`2a1`2#Ua1`2.Z.Z#la1`2.Z.Za1.Z`I`I`1`B.N`U.B.M",
"`E`X`E`X`X`X`X#I`X`X`X#I`X`X`m`X`X`XaK#I`XaK`X#I`X`m.Y`m`X`m`E`E#n#Cas`8.5.k.k`v#U`X`X`X`X`X`X#l`X`2a1`2.Za1#la1#Ua1#U`2.Z`2.Za1`2#Ua1`2.Z`2.Za1`2.Za1`2.Z#Ua1#U.Z.Z`1`I`I#Z.h#Ma6.B.M",
"#8`E`X`X`X`X`X`X`X`X`X`X`XaK`X`X`OaK`X`X#I`XaK#IaK`X`X`X`E`E`m`2.I#Cal.5ao.5.k`v`E`X`X`X`X#U#8`2#U`2.Z.Z.Z#U`2a1#l`2.Za1`2.Z#la1#la1#U`2a1#U`2.Z.Z.Z`2.Za1.Z.Za1#l.Z.Z`I`I`I.haR.n.ca.",
"`E`X`c.X`c`XaPaP.X`X`X`X`X`X#I`X`X#I`X#I`X#I`X`X`X`m`E`m`m`X`E`Eau.aal.kaO.5.5`X`X`X`X`X#l`v#U`2a1#Ua1#Ua1.Za1#l`2.Z.Z#l.Za1.Z`2a1#U`2`2#l`2a1#la1#la1#l.Za1#l.Z.Z.Z.Z`I`I.6.h.E`U.O##",
"`c.y.fagaZacaI.H.H.X`X`X`X#I`X#I`X#I`X#I`XaK#I`X`m`X`m`E`X`E`m`E.I#C`J.k.k.5.kaV`E`X`X`X`X`2#U#Ua1#l.Z.Z.Z#la1.Z.Za1.Za1.Z.Z.Z.Z`2.Z.Z.Z.Z`2.Z.Z.Z.Z`I.Z.Z`I.Z`Ia1a1`I`I`1.6.h.i#E.O`7",
"#W`t.qae.o#yan.H.H`v`X`X`X`X`X`X`X`X`m`X#I`X#I`X`m`X`m`X`m`E`m`2`g.Dafas`0al`Z.2`X`X`X#U#U#Ua1#U.Z`I.Z.Z#7.Z.Z.Z`2.Z.Z#l.Z.Z.Z.Z.Z#7.Z`1aW.Z#7`I`B.4a5a3.a.4#Z.Z.Z.Z`I`I`I`I.h.W#E#4`7",
"agag#yaeae#y.H.H.X#8`X`X`X`m`X`m`X#I`X#I`X`m`X#I`X`m`X`m`X`E`X`2`g.Daf.2`0`z`z#U`E`c#8#U`2#U#U`I`I.Z`I`I`I`g.P`z.Z.Z`I`I`I.ZaU`IaWaWaW`G.OaT.Z.Z.h#4#4au.w.BaW`I`I`I.Z`1`I.6#ZaG`U#4a.",
"#gaI#e#y#x.qae`c`X`X`X`X`X`X`X`X`m`X`m`X`m#I`X`m`X`X#8`E`m`m`E`EaY.D#x.F.Y.Y.Y`E`E`c.F#U#U#U.ZaW`IaW`I`I#Z.c`k`3.P#Z`G.j.j`q`qaG`Y.ga3.4ah#vaW`I.h.c.D`g`F.4#ZaW.Z.Z`I`I`I`I#Z.`#EaX`7",
"`3`n.Q#ZaWaW#U`E`X`m`X`m`X`X`m#I`X`m#I`X`m`X`maK`X`m`E`m`X`X`E`E#ZaL.d.Y.Y.Y`X`X#U.y.y.ZaW`z#Z#T`G`3av.G.j.g.G`k.g`q`k.g.j.g.4aG`wah.K.j.g`3aU`I.haR`R`l.uaF.P`I.Z.Z.Z`I`I`I#Z.``U`R`7",
"`E#U`E`X`X`E`X`X`X`X`X`X`E`m`X`X`m`X`X`m`X#I`X#I`X#8`E`m`E`X`m`2aW.G.daP.Y.Y`X`E#U`g`G`L`q`Y`q.O.g`Y.a.4.O.O.4`w.a.4.O.aau.u.4.eaRar.cau.B.i`z`IaU.e#1au.eaAaU`Ia1#Ua1`I`I#Z.6.``U#m.`",
".Y`X`E`X`X`X`X`E`m`X`X`m`X`X#8`m`X`m#8`X`m`X`X#I`E`m`E`X`m`E`E`EaWaRaa`E.Y`E`EaW.j.G`q.B`q.G.g.G#4#4.O`k.j.caG.eav.h`B`B`IaU`I`IaW`I`I.Z`I.Z#7.Z`I`I.Za1#7`Ia1`I.Fa1.Z`1aW.6#Z.e`U.SaS",
"`E`X`2`X`X`X`X`X`X`m`X`X`E`m`X`X`E`X`X`m#8`E`m`X`m`X`2`E`E`E`E`2#ZaraL`p#c#A#A#c.j`q`L`r.j#J#n.e.e#T.haW`IaU`I.Fa1.Z`I.Z.Z.Z.Z.Z`2`2.Z`2.Z.Z.Z.Z.Z.Z.Z.Z.Z`I`I.Z.Za1.ZaW.V#Z.VaA`U`UaS",
"`E`X`E`X`X`X`E`m`X`E`m#8`E`m`2`m`E#8`2`E`2`E`X`X`E`2`E`2`E.Z.F.F#Z.O.Naz#b#o#b#S.IaTaW.IaT`I.y`IaW`I.Z.Z.Z`I.Z#U#U.Z#U#U`2#U`2`2#Ua1#U`2a1#la1.Z#7.Z`1.Z#7a1.Z`I.Z.Z`I`1aW.V.haA`wa6aG",
"`E`X`E`X`E`X`X`E`E`m`2`E`2`E`E`2`E.F`2`2.F`2#U`E`IaW`I#Z#Z`0`g#Z.h.E.w.v`sa7`s.LaWaW#UaWaW.F.Z`I`I.y`I.Z.Z.Z.Z#U`2#Ua1#U`2a1#U`2`2`2`2`2#la1#l.Z.Z.Z.Z`I.Z`I`I.Z`I.Z`I`I.V#Z.haA.u.n.i",
"`X#8`E`X#8`2`X`2`z`c`m`E`E`2#U.Z.Z.F.F.F.F#ZaT`0.I`Y#Ja5aaavaF.I`gara`aQ`S`S`S.W.F.F#U#U.F.Z.Z.Z`I.Z.Z#l.Z.Z.Z.Z#U`2`2a1#U`2`2`2#U`2`2.Z`2.Za1.Z#7`I.Z.Z#7`I`I`Ia1.Z`IaW#Z.V.h`B.u.n.c",
".yaW`z.y`I.J`z.Ia3#Da2#Z#H`r`ravaa`r`l.z`r`GaF#J.I.a#D.B.d#T`Ya2#T.4a``j`S`S`x.W#Z.Z#U#U.Z.y.Z.ZaW.Z.Z.Z.Z.y.Z#U`2#l#U`2`2#U`2`2`2`2`2#Ua1#l.Z`I.Z`I#7`I.Z`I`I.Z.Z.Z`1`I.V#Z.V`Ba0#h.E",
"`r`L`q#x.ja3aa.j#La3`qa3.I.B.I.j.G.I.G.G.GaTa5aT.I`Y.I.Ba5.I#C.I`g.c`U.x.v`S`S#j#ZaW#U#U.F`I.Z.y#7.y.Z.Z.Z.Z.Z.Z`2.Z`2.Z`2`2#U`2#U`2`2#U#l`I.Z`I.Z`I.Z`I`I`IaU.Z.Z`1`I`I#Z`1#Z`B#M#h.O",
"a5a3.4.4a3aaaa.ja5`Ga5#J.I#v`z#T.j`g`laGa3`g#n#J.I`r.I#n#J.I#JaT`B.4`U.x`S`S`x#jaW.y#U.F.Z.F.Z.ZaW.Z.Z.Z.Z`I.Z.Z#l.F#U`2.Za1#U`2#U`2`2a1#Ua1.Z`I.Z`I.Z`1`I`I`I.Z.Z`I`I`I#Z.6aW`BaR``aR",
".javav`3#Z#T#Z`z`z.ZaWaW.2`I.F.Z#U#U#U.F.Z.F#U#U.F`IaWaWaWaWaW#Z#Z.B`Ua``S`S`S.i.F.F.F.y.Z.y.Z.y.Z.Z.y.Z.Z#7`I.Z.Za1#la1#U`2`2`2`2.Z#U#U`I`I.Z`1a1#7`I`I`1`I`I.Z`I`I`I.V#Z.h#ZaY.E#R#4",
".y.FaW.F.F.y#U#U#U#U#U`E#U#U#U.F#U#U#U#U.F#U`E#U.F`I`0`I.2aWaW#Z`g.4.n`x`S`S`x#j.ZaW.ZaW.Z.Z.y.ZaW.Z.Z#7aW.y.Z.y.Z.yaWaW#Z#Z.Z#U.Z`I`G.4.B`3`I#7`I.ZaW#7aW`I.Z.Za1`I`I.V.h.V.h`B.c#R.g",
".F.Z.y.Z#U#U#U#U#U#U`E#U`E`E`E.F#U.F.F#U#U#U#U#U#U.F`IaW`IaWaW#Z`Ba3#Ea`.x.p`x#j.ZaW.2aWaW`g#ZaWaU#TaW.y.h.4`kav.B`R`YaR#m#x.Z.ZaW.4.gav.4`w#v`I.Z#7aW`I`1`I`I.Z.Z`IaW.V#Z.h.h`B.i#R`R",
".y.F.F.y.F#U`E#U`E#U`E`E#U#U`2.Fa1#U.Z.F.Z#U`E.F.F`IaWaW`0aW`z#Z`gaG`Ua``x`S`Sar`g`3.j#J`z`GavaWav.a`3`I.P.B.E.a.e`R.z.4ahaT.I.j#J.g`qaWaA`w`YaWaW`I.Z`1`I`I`I`I`I`I.h`1.h.h.h`g.i.n`w",
".F.y.Z#U#U#U`E#U`E`E#U`E`E#U`E#U#U.Z#U#U.F.F.F.F.Z.y`IaW`IaW`z#Z`g`l#E`4`x`x.p`Hav.Ga5`L#T`3a3aW.e.OaT.Z.hau`k`YaT`R.DaRah#J.B.4`Y#4#C#H#1`w.4aU`I`1`I`I`I`I`I.ZaW`I#Z.6.h.h.haYaS.n.S",
".F.F.F.F#U#U`E#U#UaP#U`E#U`E`2.F#U.F.Z.Z.Z.Z#U.F.ZaWaWaW`0aW#Z#Z`g.j.S`4`x`S.p..#Ta3.G.B`qa3#vaWaU.haW.yau.O`l.gav`w.G.4.S`qay#4`qau`k.a#4.4`g`1.Z.Z.Z`1`I`I.Z.Z`I.6.h.V.h.haY`B.L.n`U",
".y.Z.y.F#U#U.Y#U`E#U`E`E`E`E`E.F.Z.Z.F.Z.y.F.F.Z.y`IaWaW#ZaW#Z#Z`g#1`w`4`x.T`x..`3a3a5`q`Ya5a3aW.Z.Z#7.Z.ha3.O#n.P.j#n.P.I.e`l.B.eaW.Z`I`1`I`Ia1#7`1`I`I`1`I`I.ZaW`1#Z.V.h.h`g`B.``Ua6",
".FaW.y`z.2#U#U`E.F`2#U`E`E`2.F.Z.Z.F#U.Z.F#U#U.F.ZaWaWaW.6#Z#Z#Z`gav`w`4`S`S.T...eavav`lav.j`LaW.y`I.Z.y.Z`1`I.Z.Z.Z.Z.Z#l.Z`1.Z.Z#l.Z.Z`I.Z`1.Z.Z`I`I`1`I`I`I.Z`I.V.h#Z.h.haY`B.``Ua6",
"aW`G`q`L#T.F#U`E.F`E`E`E`E#U`2.F.F.Z.Z.y.Z.y.F.y.ZaWaWaW#Z#Z#Z`g`g#n.w`4`x.p`x`H#Z.h#H#T#Z#HauaW.Z.Z.Z.Z.Z`I.Z.Z#U.Z#l`2.Z`2.Z.Za1#U`2a1#l`I`I#7aW.Z`1`I`I`I.Z`I`IaW.V.V.V.haY`B.ea`#h",
"aW`3.a.G.J.F.F.F#U`2#U`E`2#U#U#U.Z.Z.F.Z.y.Z#U.Z.yaWaW#ZaW`z#Z#Z`B.I`w`U.p`x`S`H`IaW.haW.ZaW.Z.Z.y.Z.y#7.Z.Z.Z#l`2.Za1#U`2.Za1#l`2`2#U`2.Z.Z`I.Z`1`I`I`1aW`I`I.Z`1#Z.h.V.h.h`B`g.e`w.n",
"#J`r.4`Y`3av`z.F.F#U.F`E#U`E#U.F#U.Z.y.Z.Z.F.F.F`IaWaW#Z#Z#Z#Z#Z`g.e.u`4`x.p.T`HaWaWaWaW.y.Z.Z.Z`I.Z.Z.Z.Z.Z#7.F`2#la1#U`2.Z#7a1#U`2.Za1.Z#7`I.Z`I`I`I`I`1aW`I`I`I.h`1#Z.h.h`BaYau.N#h",
"#vav`3`B.I`q.I.F#U#U`E`2#U#U.F.F.Z.F.Z`I.y.Z.F.ZaWaWaWaW#Z#Z#Z`g`gau.g`U`x`S`S`HaWaW.haW.Z.y.Z.y.Z#7#U.Z.Z.Z.Z.Z#U`2`2`2.Za1#U`2a1#U`2`2.Z`I.Z`1`I`I`1`IaW`I.Z`I`1aW.h.V.h.h`g`BaA`F#h",
"aTaWaW.FaW`zaW#U.F#U.F`E#U`E#Ua1#UaW.y.Z`I.F`I.y`IaW#Z#Z#Z#Z#Z.h`g.I`F`4`x`x`S`d`IaW`zaW.Z.y.Z.Z.Z.Z.Z.Z.Z#7.y.Z`2.Z#U`2`2.Z.Z#l`2#l`2.Z.Z#7`I.Z`1`I`I`1aW`1`I.Z`1.h.V.h.haY`B.hau#M``",
".Z.F.Z.y#U`2#U`E#U#U`2`2#U`E#U#U.Z.Z.ZaW.yaW.F.FaW#ZaW#Z#Z#Z.h`g`B.I#4`U`x`x`S.8aW`IaWaW.Z.Z.Z`I.y.Z.Z.Z.Z.Z`I.Z`2#l`2#la1#la1a1#U`2.Z#Ua1.Z`I`I`I`I`1`I`1aW`IaW.6aU.h.h.h`B`B`B.P#M``",
".F.Z.F#U.F#U#U#U#U#U#U`E`E.F#U.Z`I.y`I.FaW.F.ZaW`IaW#Z#Z#Z#Z`g`g`g.P`k`U`x`x`S.8aWaWaW.yaW.F.y.Z.Z.Z.Z.Z.Z.Z#7.Z#Ua1#U`2`2a1#l#Ua1#la1#U#7.Z`1.Z`1`I`IaU`1#Z`I`I.V.h.h.V.h.h.M.h.M.E#R",
".F#U.Z#U#U.F#U`E#U`E.F#U#U.F.Z.F.Z.F`I.yaWaW.y`IaW#Z#Z.h#Z`g#Z`g`gau.G`U`x`x.p..aW.ZaWaW.Z.Z.Z.Z.Z`I.Z.Z.Z.Z.Z.Z#U#la1#U`2#Ua1#la1.Z`2.Z.Z`I`IaU`IaUaU#Z.VaUaW.haW.h.h`g`B`B#Tau.I.O#R",
".F.y.Z#U#U#U#U`E.F.F#U.F.F#U.F.ZaW.y`IaWaWaWaWaWaW.h#Z#Z#H`g#H`g#T#T.E`U`x.p.p..aWaWaWaW.yaW.ZaW.ZaUaW.Z.y`1.Z.Z.Z.Z#U.Z.ZaWaW#Z#Z#H#T#T.I.Iav.ja3a3.B.4.G.G.G.G.D.gak`Rah.S.S.s`P#h``",
"#T.J#Ta2#T#D.I.I#J#J#J`r`r`r#xa3a3a3aaaa.z.za5.G`YaLaL.g.D.g.u`R`w.wa``u#d.p.p.x.j#J#J#J#v.d`Laa`q`q.G.K.a.gakakak#m`i#m.s#Ea6.n.na6#Ea6a6.n#ha6a6a6a6#E.s.Sahak`w`R`w`w.u.u.ga0a0a0`k",
".u.Na`.w.u.w.w.N.w`ja`.w.w.w`4`4`4#B#B`4`4a``j`jaQai`4`x`4`j.w`4`x`4.p.p.p#d#d#d`4ahak#Xahah`R#m#m#mah`w`w`w`R.g#4#4`k.O.Ear.c.4.iaGaS.jaSaSaS#1#1.`.`a.`7.eaua.a.##`7`7`7`7`7`7`7`7`7",
"aQ.xaqaqai.xaQ`jaiai.v.vaQ.x`Sai.p#B#B`x.xaQ#w#w`6`xaq.p`xaiaiaq.p.p.p`e`e`e`e`xar.j#J.Iau.P.P.M.P.M.M.M.A.A`b.A.h.A.h.A.h.A.M.M.A.M.A.A.M.M.M`b`b`b`b`b`b`b`b`b`b`b`b##############`b",
"`6.vaqaq`S.v`6a7`S`S`6`6`6.v`S`e.T`S.T`S`6#w`6`6ai.T`W`e`eaqaq.p`e.p`e`e`e`e`e.par.`.I`g.h.h.A`o.A.A.A.A.A.A`V.A`V.1.1.1.1.A`V`V`V.1.A.1.1`V`V`V`V`V`V`V`b`V`V`V`V`V.A`V`b`b`b`V`b`b`b",
"`6`S.T.Ta7#V`6`6`S`S.T.v`Sa7`W`W`W.Ta7`S.v`6`6aQ.T`S`W`eaq`S`S`W`W`e.p`e`e`e#d`e...W#J#H.AaUaU.1.1`1.1aU.t.1`Q`Q#7.1.1.t#7.t.t.1`Q.1`M.t.1`Q`Q`Q`Q`Q`Q`Q`Q`Q.1.1`V.A.A.A.A`V.A`V`b`V`b",
"`Sa7.T.Ta7#V`6`ya7.Ta7`s.T`W`W`W`W`W`W.T.v`6`6`6`S`W`W`e.T`Saq`e.T.T`W`e`e`e`e.p..ar.`.haU#7#7#7#7.t`M`M#7`Q`M`M`M`M`M`M`M`M.ta4.ta4`M.R`M`M.t`Q`Q`Q`Q.1.1.1.t.1.1`Q`V`V`V.A.A.A`V`V`b",
".va7.T.T`sa7#V#V`sa7.Ta7aq.T.T`W`W`W`W.Ta7.v`y`6.v.T`W`W`W`W.T.T.p`W`e`e`e`e`e`e#w#j`G.haU#7#7`M#7`M#7`Q`M`M`M.t.R#5a4a4a4a4`Ma4a4a4`M.Ra4.t`M`Q`Q.t.t.1.t.t.1.1.1`Q.1.1`V.1.A`V.A`V`V",
"`s`s`s.Ta7`s`s`sa7`s`s`Sa7.T.T`W`e`W`W.T.T.v`y`6`S.T`W`W.Taq`W.T`W.T`e`e`e`e`e.p.8.i#n.h`o#7#7#7`M.t.t`M`M`M`M`Max.R.Raxa4a4a4a4.ta4a4a4a4a4`Ma4.t.t`Q.t`Q`Q.t`Q`Q.1`Q`V`Q`V`V.A.A`V`V",
"a7`s`s`Wa7a7.T`s`s`W.T`sa7.T.T`W`W`W`W`W.Ta7#w`y#V`W`W`W.T.T`W.T.T`W`e`e`W`e`e.T#w#jav.h#l#7#7.R.R`M.t`M`Ma4.ta4.Ra4#5axax#5a4a4a4a4a4ax`Ma4`Qa4.t.t.t.t.t.t.t.t.1.1`Q`Q`V`Q.A.1`V`V`b"
};
