/* XPM */
static char * icon_up_xpm[] = {
"16 16 3 1",
" 	c None",
".	c #000000",
"+	c #008080",
"                ",
"                ",
"                ",
"        .       ",
"       .+.      ",
"      .+++.     ",
"     .+++++.    ",
"    .+++++++.   ",
"   ....+++....  ",
"      .+++.     ",
"      .+++.     ",
"      .+++.     ",
"      .....     ",
"                ",
"                ",
"                "};
